<svg width="1024" height="1024" fill="none" xmlns="http://www.w3.org/2000/svg">
  <path fill-rule="evenodd" clip-rule="evenodd" d="M512 1012c276.142 0 500-223.858 500-500S788.142 12 512 12 12 235.858 12 512s223.858 500 500 500zM223 415.333h577v24.042a48.085 48.085 0 01-48.083 48.083h-72.125a48.083 48.083 0 01-48.084-48.083 48.085 48.085 0 01-48.083 48.083h-144.25a48.083 48.083 0 01-48.083-48.083 48.081 48.081 0 01-48.084 48.083h-72.125A48.086 48.086 0 01223 439.375v-24.042zm571.092-24.041L750.991 240.43A24.043 24.043 0 00727.875 223H617.758l33.659 168.292h142.675zM295.125 223h110.117l-33.658 168.292H228.908l43.101-150.862A24.043 24.043 0 01295.125 223zm273.6 0h-114.45l-33.659 168.292h181.767L568.725 223zm62.983 270.09a71.85 71.85 0 0048.084 18.41h72.125a71.646 71.646 0 0024.041-4.207v268.665A24.043 24.043 0 01751.917 800H487.458V583.625a24.045 24.045 0 00-24.041-24.042H343.208a24.042 24.042 0 00-24.041 24.042V800h-48.084a24.042 24.042 0 01-24.041-24.042V507.293a71.646 71.646 0 0024.041 4.207h72.125a71.85 71.85 0 0048.084-18.41 71.845 71.845 0 0048.083 18.41h144.25a71.847 71.847 0 0048.083-18.41zm65.084 179.66a24.045 24.045 0 007.041-17v-72.125a24.045 24.045 0 00-24.041-24.042H559.583a24.042 24.042 0 00-24.041 24.042v72.125a24.045 24.045 0 0024.041 24.042h120.209a24.042 24.042 0 0017-7.042z" fill="#fff"/>
</svg>
